<?xml version="1.0" encoding="utf-8"?>
<!-- Generator: Adobe Illustrator 23.0.4, SVG Export Plug-In . SVG Version: 6.00 Build 0)  -->
<svg version="1.1" id="Layer_1" xmlns="http://www.w3.org/2000/svg" xmlns:xlink="http://www.w3.org/1999/xlink" x="0px" y="0px"
	 viewBox="0 0 106.8 34.5" style="enable-background:new 0 0 106.8 34.5;" xml:space="preserve">
<style type="text/css">
	.st0{display:none;fill:#FAAA46;enable-background:new    ;}
	.st1{font-family:'FS-Story-Brush-Slanted';}
	.st2{font-size:45.56px;}
	.st3{letter-spacing:6;}
	.st4{enable-background:new    ;}
	.st5{fill:#FAAA46;}
</style>
<title>2021-01</title>
<text transform="matrix(1 0 0 1 6.08 28.1)" class="st0 st1 st2 st3">2021</text>
<g class="st4">
	<path class="st5" d="M25.8,25.9L25.8,25.9c0.5,0,1-0.1,1.3-0.1h0.3l0.4,0c-0.2,0.1-0.7,0-0.7,0.2l0.6-0.1v0.2
		c0.3,0,1.4-0.5,1.6-0.5l0.1,0.1c-0.3,0-1.4,0.5-1.7,0.7l0.3,0c-0.5,0.6-3.4,0.7-3.5,1l0,0.1h0.3c0.5,0,1,0,1.6-0.1
		c-1.1,0.5-3.4,1.4-5.1,1.6c0.5,0,1,0,1.5,0c0.2,0,1,0,0.7,0.2c-0.1,0.2-7.7,1.2-7.6,1.2v-0.1l-4.8,1l0.2,0.2
		c-0.7,0.2-0.5,0.5-1.9,0.5c-0.5,0-1.1,0.5-1.5,0.5c-0.2,0-0.3-0.2-0.3-0.4c-0.3,0.3-0.5,0.2-0.9,0.4v0c-1.3,0.5-2.4,0.8-3.8,1.1
		c1.3-0.5,2.6-0.9,3.8-1.4c0-0.1,0-0.2,0-0.2c-0.7,0.3-1.3,0.6-1.8,0.7c0.5-0.2,1.1-0.6,1.8-0.9H6.5c-2.6,1.1-2.9,1.1-3.1,1.1
		c0,0,0,0,0.1-0.1l0.2-0.2l-1.8,0.2c-0.1,0-0.9-0.4-0.9-0.5l4.7-2v-0.1c-0.6,0-2.1,0.3-2.6,0.3H3l2.3-1c-0.4,0.1-1.1,0.1-1.3,0.2
		c0.2-0.2,1-0.3,1-0.5h0c-0.1,0-0.3-0.1-0.4-0.1H4.4c0.3,0,1-0.2,1.1-0.5H5.3H5.2c0,0,0,0,0,0c1.2-0.7,3.4-0.8,5-1.1
		c3.1-2.1,5.7-4.6,7.9-6.7c-0.2,0-2.6,2.2-3.4,2.8c-0.7,0.5-2.1,1.5-2.2,1.5c0,0-0.1,0-0.1-0.1c0.1-0.1,0.3-0.3,0.5-0.3
		c4.8-3.9,11.6-10.5,14.2-14.6C27.4,9.5,27.6,9,28,8.3c0-0.2,0.1-0.2,0.1-0.1c0.3-0.6,0.6-1.1,0.7-1.7l-0.4,0.4
		c0.1-0.4-0.2-0.6-0.2-0.9c-0.6,0.3-1,0.5-1.4,0.5l-0.4-0.1c-1,0.9-2.3,1.7-2.7,1.7c-0.1,0-0.2-0.1-0.1-0.3c0.1,0,0.1-0.1,0.1-0.2
		l0.1-0.1c-1.1,0.3-1.9,1-2.7,1.7l-0.8-0.4c-1,1.1-1.5,1-2.2,1.6c-0.1-0.1-0.1-0.4-0.4-0.5c0,0,0,0-0.1,0h0l0.6-1
		c-1.4,1.3-1.8,1.7-1.9,1.7s0,0,0-0.2c0.2-0.3,0.5-0.8,1.1-1.5c0,0-0.1-0.1,0-0.3s0.2-0.3,0.3-0.3c-0.3,0.1-0.9,0.6-1.2,1
		C20.2,5.3,27.9,2.2,29.4,2c0.3,0,0.8,0,1.1,0c5.4,0,2.1,7.2,1.5,8.1l-0.4,0.7c-2.8,4.6-9.9,11.5-16.4,16.3c2.5-0.2,2.6-0.5,3.6-0.5
		c0,0,0.1,0.1,0.2,0.1c1.7,0,4.3-0.9,5.7-0.9c0.6,0,2.2-0.5,2.9-0.5c0,0,0.1,0,0.3,0.1c0.2,0,0.1,0,0.3,0c0,0,0,0.1,0.2,0.1
		C27.6,25.6,26.7,25.6,25.8,25.9z M4.8,28.3h0.7c-0.4,0-0.6,0.2-0.8,0.2L4.8,28.3z M6.1,28.1c0-0.1,0-0.2,0-0.2
		c0.2-0.3,0.5-0.1,0.9-0.3C6.7,27.9,6.3,27.9,6.1,28.1L6.1,28.1z M7.5,27.9V28c-0.1,0-1,0.2-1.4,0.2h0v-0.1L7.5,27.9z M9.5,32.6
		v-0.3l0.1,0l0.1,0c0.3,0,0.3-0.3,0.8-0.5v0.2c-0.1,0.1-0.3,0.3-0.5,0.3L9.5,32.6z M12.6,26.2l-2.6,1.9c1.3-0.1,1.6-1,2.6-1.7V26.2z
		 M21.6,29.4c0,0,0,0-0.1,0c-1.5,0-3.3,0.2-4.9,0.4l-0.2,0c-1.1,0-2.3,0.7-2.5,0.7s-0.3-0.1-0.5-0.1c-0.3,0-1.6,0.2-2.2,0.6
		c-0.2,0,0-0.2-0.2-0.2c-0.1,0-0.2,0-0.2,0.1c0.3,0.2,0.3,0.1,0.5,0.1c0.3,0,0.8,0,1.1-0.3c0,0,0,0,0,0h0.1c3.3-0.7,5.6-0.8,8.3-1.3
		L21.6,29.4z M15.7,9.5c0.6-0.5,1.1-0.9,2-1.5c-0.9,0.7-1.5,1.2-2.2,2L15.7,9.5z M26.4,12.1c0.3-0.5,0.3-0.8,0.6-1.2
		c0.3-0.4,0.8-0.8,1-1.3c0.5-1,1.4-2,1.4-3.1c0.1-0.1,0.2-0.2,0.2-0.3c0.1-0.1,0.1-0.2,0.1-0.4c-0.2,0.1-0.3,0.2-0.5,0.4
		c-0.2,0.3-1.2,2.1-1,2.2c0,0-0.1,0-0.2,0.2L28,9.1l-0.8,1.3c-2.4,3.6-8.1,8.5-11.3,11.8c2.8-2.3,7.7-6.6,9.9-9.2
		C26.2,12.6,26.4,12.4,26.4,12.1z M19.1,6.6c0.4-0.5,1.6-1.2,2.5-1.8c-0.9,0.7-1.9,1.2-2.3,1.9c0,0-0.1,0.1-0.1,0.1
		C19.1,6.8,19,6.7,19.1,6.6z M19.2,6.8c1.2-0.9,2.6-1.7,4-2.6h0c0,0,0,0,0.1,0l-0.8,0.5c-1,0.6-3.4,2.1-3.4,2.1L19.2,6.8z M26,7.5
		l0.2-0.2c0.1,0,0.2,0,0.1,0.2H26z M27.7,5.8L27.7,5.8l-0.1,0.1L27.7,5.8z M28.2,5.8h-0.1v0L28.2,5.8L28.2,5.8z"/>
	<path class="st5" d="M33.6,27.4c0,0-0.2-0.4,0-0.5l0.2-0.1c0,0.2,0.2,0.2,0.2,0.5C33.6,27.4,33.5,27.4,33.6,27.4z M36.2,22.4
		L36,22.6c-0.3,0,0-1.3,0.6-2.4C36.3,21.1,36.6,21.7,36.2,22.4z M58.2,13.9c1.9-3.3,2.9-6.1,3.4-9.4c-0.2,0-0.2-0.7,0-0.8
		c0,0,0.1,0,0.1,0c0.7,0,0,2.8-0.1,3.9c-1,3.5-2.4,6.3-4.6,9.8c-3.1,5.3-8.5,12.7-15.7,13.9c-0.1,0-0.4,0-0.6,0
		c-4.6,0-4.2-3.9-4.2-6.9l-0.4,0.8c0.4-2.3,0.1-3.3,2.3-7.2c1-1.8,1.7-3.6,3-5.5c0.5-0.9,1.1-1.7,2.3-2.3l0.2-0.4
		c0.7-1.3,3.5-4.4,4.1-4.4c0,0,0,0.1,0,0.3c-0.2,0.3-0.5,0.6-0.6,0.8c2.7-2.1,3.4-2.6,5.7-4c0,0,0,0.2,0,0.3c2-1,3.7-1.1,4.6-1.1
		C62.7,2.3,60.9,8.8,58.2,13.9z M57.7,15.3c-2.5,4-5.3,8.4-9.6,12c-3.2,1.8-4.6,3.4-6.9,3.4c-3.9,0-4-3.7-4.1-6.2l0.2-0.4
		c0.3-0.5,0.2-0.5,0.4-1.1l-0.3,0.4c-1.8,3.1,0.1,6.8,2.2,7.2c0.5,0.1,1,0.1,1.4,0.1c2.6,0,8.9-2.4,15.9-13.9
		c1.3-2.1,2.7-4.4,3.4-6.6C59.3,12,58.7,13.7,57.7,15.3z M37.9,18.1l-0.5,0.8c-0.2,0.3-0.3,0.3-0.3,0.5l-0.3,0.5
		c0-0.4,0.3-0.8,0.5-1.3L37.9,18.1z M52.9,6.2c-0.4,0-1.5,0.6-1.8,1.1L50.5,8l0.3-0.5c-1.4,1-1.9,1.9-2.5,2.8
		c-0.7,1.2-1.3,2.4-2.1,3.6l-0.4,0.6c0.5-1.4,1.5-2.8,2.1-4.2c-1.5,1.8-2.6,3.4-3.4,4.9c-2.4,4-4.8,8.3-2.7,10.8
		c0.3,0.4,0.8,0.8,1.3,0.8c0.7,0,5.5-4.1,6.4-5.6c1.3-1.8,2.8-3.5,3.5-4.9c2.8-4.5,5.7-11,2-11H55c-0.3,0.1-0.6,0.2-0.8,0.4
		c0.2,0,0.2,0,0.5,0c0,0,0,0,0,0h0.1c-0.5,0.1-1.5,0.3-2.1,0.5L52.9,6.2z M50.4,8.3l0.5-0.4c-0.9,1.1-1.6,2.3-2.4,3.6
		C49.2,10.4,49.7,9.4,50.4,8.3z M50.4,8.3c-0.5,0.5-1,1-1.5,1.6l0.3-0.5C49.6,9,50,8.5,50.5,8L50.4,8.3z M52.7,6.3
		c0.1,0.1,0,0.2,0,0.3c-0.4,0.5-1.5,1.4-2.3,2.1c0.7-1,2-2,2.1-2.3L52.7,6.3L52.7,6.3z M52.7,6.4C52,7,51.4,7.3,50.9,7.8
		C51.4,7.1,51.7,6.7,52.7,6.4L52.7,6.4z M59.5,3.5c0.1,0,0.2,0,0.4,0c-0.2-1-1.3-1.5-2.6-1.5c-1.1,0-2.9,0.4-4.1,0.9
		c0.1,0.2,0,0.1,0.1,0.2l0.4-0.1c0.9-0.5,2.3-0.6,3.6-0.6C58.2,2.5,59.1,2.7,59.5,3.5z M54.1,6.4h-0.2c0.4,0,0.7-0.1,1-0.1
		c0.3,0,0.5,0,0.6,0h-0.1c0,0-0.2,0-0.4,0.1C54.7,6.4,54.4,6.4,54.1,6.4z M55.5,4.8c-0.3,0-0.5,0-0.8,0.1V5c0.5-0.1,0.7-0.1,1-0.2
		H55.5z"/>
	<path class="st5" d="M76.7,25.9L76.7,25.9c0.5,0,1-0.1,1.3-0.1h0.3l0.4,0C78.5,26,78,25.9,78,26l0.6-0.1v0.2c0.3,0,1.4-0.5,1.6-0.5
		l0.1,0.1c-0.3,0-1.4,0.5-1.7,0.7l0.3,0c-0.5,0.6-3.4,0.7-3.5,1l0,0.1h0.3c0.5,0,1,0,1.6-0.1c-1.1,0.5-3.4,1.4-5.1,1.6
		c0.5,0,1,0,1.5,0c0.2,0,1,0,0.7,0.2c-0.1,0.2-7.7,1.2-7.6,1.2v-0.1l-4.8,1l0.2,0.2c-0.7,0.2-0.5,0.5-1.9,0.5
		c-0.5,0-1.1,0.5-1.5,0.5c-0.2,0-0.3-0.2-0.3-0.4c-0.3,0.3-0.5,0.2-0.9,0.4v0c-1.3,0.5-2.4,0.8-3.8,1.1c1.3-0.5,2.6-0.9,3.8-1.4
		c0-0.1,0-0.2,0-0.2c-0.7,0.3-1.3,0.6-1.8,0.7c0.5-0.2,1.1-0.6,1.8-0.9h-0.2c-2.6,1.1-2.9,1.1-3.1,1.1c0,0,0,0,0.1-0.1l0.2-0.2
		l-1.8,0.2c-0.1,0-0.9-0.4-0.9-0.5l4.7-2v-0.1c-0.6,0-2.1,0.3-2.6,0.3h-0.1l2.3-1c-0.4,0.1-1.1,0.1-1.3,0.2c0.2-0.2,1-0.3,1-0.5h0
		c-0.1,0-0.3-0.1-0.4-0.1h-0.1c0.3,0,1-0.2,1.1-0.5h-0.3h-0.1c0,0,0,0,0,0c1.2-0.7,3.4-0.8,5-1.1c3.1-2.1,5.7-4.6,7.9-6.7
		c-0.2,0-2.6,2.2-3.4,2.8c-0.7,0.5-2,1.5-2.2,1.5c0,0-0.1,0-0.1-0.1c0.1-0.1,0.3-0.3,0.5-0.3c4.8-3.9,11.6-10.5,14.2-14.6
		c0.5-0.7,0.7-1.2,1.1-1.9C79,8.1,79,8.1,79,8.2c0.3-0.6,0.6-1.1,0.7-1.7l-0.4,0.4c0.1-0.4-0.2-0.6-0.2-0.9c-0.6,0.3-1,0.5-1.4,0.5
		l-0.4-0.1c-1,0.9-2.3,1.7-2.7,1.7c-0.1,0-0.2-0.1-0.1-0.3c0.1,0,0.1-0.1,0.1-0.2l0.1-0.1c-1.1,0.3-1.9,1-2.7,1.7l-0.8-0.4
		c-1,1.1-1.5,1-2.2,1.6c-0.1-0.1-0.1-0.4-0.4-0.5c0,0,0,0-0.1,0h0l0.6-1c-1.4,1.3-1.8,1.7-1.9,1.7s0,0,0-0.2
		c0.2-0.3,0.5-0.8,1.1-1.5c0,0-0.1-0.1,0-0.3s0.2-0.3,0.3-0.3c-0.3,0.1-0.9,0.6-1.2,1C71,5.3,78.8,2.2,80.3,2c0.3,0,0.8,0,1.1,0
		c5.4,0,2.1,7.2,1.5,8.1l-0.4,0.7c-2.8,4.6-9.9,11.5-16.4,16.3c2.5-0.2,2.6-0.5,3.6-0.5c0,0,0.1,0.1,0.2,0.1c1.7,0,4.3-0.9,5.7-0.9
		c0.6,0,2.2-0.5,2.9-0.5c0,0,0.1,0,0.3,0.1c0.2,0,0.1,0,0.3,0c0,0,0,0.1,0.2,0.1C78.5,25.6,77.6,25.6,76.7,25.9z M55.7,28.3h0.7
		c-0.4,0-0.6,0.2-0.8,0.2L55.7,28.3z M57,28.1c0-0.1,0-0.2,0-0.2c0.2-0.3,0.5-0.1,0.9-0.3C57.6,27.9,57.1,27.9,57,28.1L57,28.1z
		 M58.4,27.9V28c-0.1,0-1,0.2-1.4,0.2h0v-0.1L58.4,27.9z M60.4,32.6v-0.3l0.1,0l0.1,0c0.3,0,0.3-0.3,0.8-0.5v0.2
		c-0.1,0.1-0.3,0.3-0.5,0.3L60.4,32.6z M63.5,26.2L61,28.1c1.3-0.1,1.6-1,2.6-1.7V26.2z M72.5,29.4c0,0,0,0-0.1,0
		c-1.5,0-3.3,0.2-4.9,0.4l-0.2,0c-1.1,0-2.3,0.7-2.5,0.7s-0.3-0.1-0.5-0.1c-0.3,0-1.6,0.2-2.2,0.6c-0.2,0,0-0.2-0.2-0.2
		c-0.1,0-0.2,0-0.2,0.1c0.3,0.2,0.3,0.1,0.5,0.1c0.3,0,0.8,0,1.1-0.3c0,0,0,0,0,0h0.1c3.3-0.7,5.6-0.8,8.3-1.3L72.5,29.4z M66.6,9.5
		c0.6-0.5,1.1-0.9,2-1.5c-0.9,0.7-1.5,1.2-2.2,2L66.6,9.5z M77.3,12.1c0.3-0.5,0.3-0.8,0.6-1.2c0.3-0.4,0.8-0.8,1-1.3
		c0.5-1,1.4-2,1.4-3.1c0.1-0.1,0.2-0.2,0.2-0.3c0.1-0.1,0.1-0.2,0.1-0.4c-0.2,0.1-0.3,0.2-0.5,0.4c-0.2,0.3-1.2,2.1-1,2.2
		c0,0-0.1,0-0.2,0.2l-0.2,0.4l-0.8,1.3c-2.4,3.6-8.1,8.5-11.3,11.8c2.8-2.3,7.7-6.6,9.9-9.2C77.1,12.6,77.2,12.4,77.3,12.1z M70,6.6
		c0.4-0.5,1.6-1.2,2.5-1.8c-0.9,0.7-1.9,1.2-2.3,1.9c0,0-0.1,0.1-0.1,0.1C70,6.8,69.9,6.7,70,6.6z M70.1,6.8c1.2-0.9,2.6-1.7,4-2.6
		h0c0,0,0,0,0.1,0l-0.8,0.5c-1,0.6-3.4,2.1-3.4,2.1L70.1,6.8z M76.9,7.5l0.2-0.2c0.1,0,0.2,0,0.1,0.2H76.9z M78.6,5.8L78.6,5.8
		l-0.1,0.1L78.6,5.8z M79.1,5.8H79v0L79.1,5.8L79.1,5.8z"/>
	<path class="st5" d="M85.4,32.5L85.4,32.5L85.4,32.5z M85.4,31.8l0.2,0L85.4,31.8z M85.4,32.5c0.1,0,0.5-0.5,0.5-0.6
		C85.9,32,85.6,32.3,85.4,32.5z M85.4,32.6c0.1-0.2,0.4-0.2,0.5-0.2h0.2c0,0,0-0.1,0-0.1v0h0c-0.2,0-0.4,0.1-0.5,0.1L85.4,32.6z
		 M85.5,32.7c0,0.2,0.3,0.2,0.2,0.2c0.1,0,0,0,0.1,0c0.2,0,0.3,0,0.4,0c0-0.1,0-0.1,0-0.3h-0.2C85.8,32.6,85.7,32.7,85.5,32.7z
		 M86.4,31.5c-0.4,0-0.7,0-0.8,0.2c0.1-0.1,0.3-0.1,0.6-0.1L86.4,31.5z M88.7,29.9c-0.1,0.2-0.7,1.5-0.8,2.2l0.2,0.4l0.2-0.3
		c0-0.1,0.1-0.2,0.1-0.2c1-2.6,2.9-6.3,4.7-9.3c0.3-0.4,0.3-0.4,0.6-0.7c0.2-0.4,0.3-0.6,0.5-0.9l1.4-2.3c0.9-1.4,1.5-2.9,2.4-4.3
		l0.4-0.6c0.1-0.4,0.4-0.7,0.5-1.1c0.5-1,0.3-1.9,0.8-2.6c0.1-0.1,0.2-0.2,0.2-0.4l0.5-0.7c0.6-1,1.1-1.9,1.8-2.9
		c0.8-1.3,2.1-2.6,2.8-3.8c0-0.1,0.2-0.4,0.2-0.6c-0.2,0-0.3,0.1-0.4,0.3l-0.2-0.2c0.2-0.2,0.3-0.3,0.5-0.5c0-0.1,0.1-0.3,0-0.3
		c0,0.1,0,0.2-0.2,0.3c0,0.1,0,0.2-0.1,0.2V0.9c-0.1,0.2,0,0.4-0.1,0.6l-0.2,0.2l0,0c-0.1,0-0.2,0-0.4,0c0,0,0,0,0,0
		c0,0,0-0.1,0-0.1h-0.1c-0.2,0-0.4,0-0.7-0.1c0,0.2-0.2,0-0.4,0.2l-0.1,0c0,0.1-0.1,0.2-0.2,0.2l0,0l-1.1,0c0,0.2,0,0.3-0.1,0.5
		c-0.1,0.2-0.4,0.4-0.6,0.5c-0.1,0-0.1-0.1-0.2-0.2l0,0c-0.1,0-0.2,0-0.3,0.1l-0.4,0.5c0,0.2-0.2,0.4-0.1,0.6
		c-0.5,0.1-0.7,0.1-1,0.4c-0.3,0.6-0.5,1.3-0.8,1.9c-0.3,0.5-0.8,1.1-1.1,1.6l-0.1,0.3l-0.3,0.2c-0.2,0.5-0.2,1.3-0.5,1.7l0.5-0.4
		c-0.2,0.3-0.3,0.5-0.5,0.7c-0.3,0.5-0.6,1-0.9,1.5c-1.5,2.7-2.7,5.2-4.3,7.8L90,20.2c-0.7,0.9-1,1.7-1.4,2.6
		c-0.6,1.3-3,5.3-2.5,5.5c0.1,0,0.3-0.2,0.4-0.4c-0.1-0.1,0.3-0.8,0.5-1.1l0.1-0.2c0-0.1,0.1-0.3,0.2-0.5c0.5-0.7,0.9-1.2,1.3-1.9
		l0.3-0.4c-1,1.6-3.7,7.2-3,7.5c0.3-1,0.7-1.9,1.2-2.7c0.1,0.1,0.4,0,0.1,0.5l-0.4,0.8c-0.1,0.5-0.5,1.1-0.5,1.6h0.1
		c0.3,0,0.5,0.1,0.9,0.2l0.1,0v0.1l0.2,0.1c0.1-0.3,0.3-0.6,0.3-0.8l0,0c0.2-0.4,0.1-0.7,0.5-1C88.5,29.9,88.5,29.9,88.7,29.9z
		 M86.4,33c-0.2,0-0.2-0.1-0.3-0.1c0,0.1,0,0.2,0.1,0.2L86.4,33z M86.7,32.8c-0.2-0.2-0.4-0.4-0.6-0.4
		C86.2,32.6,86.4,32.6,86.7,32.8z M87.4,31.8c-0.4-0.1-0.8-0.2-1.1-0.2c-0.1,0.4,0,0.6,0.2,0.8l0.4,0.3c0.2,0,0.3,0,0.3-0.1l0-0.3
		C87.3,32.2,87.4,32,87.4,31.8z M87.4,31.9L87.4,31.9L87.4,31.9L87.4,31.9L87.4,31.9L87.4,31.9z M87.4,31.9v0.7
		c0.1-0.2,0.1-0.4,0.3-0.6L87.4,31.9z M87.5,25.5c0,0.1,1.5-3.1,2.7-5.1c0.9-1.4,1.6-2.8,2.3-4.1c0-0.2,0.3-0.4,0.3-0.6
		c0.2-0.2,0.3-0.3,0.3-0.4c0.1-0.1,0.2-0.3,0.4-0.6c0.4-0.7,0.6-1.2,1-1.9c0.2-0.2,0.4-0.5,0.5-0.7c0.3-0.5,0.7-1.2,1-1.7
		c0.4-0.6,0.4-0.5,1-1c0,0.2-0.1,0.3-0.1,0.3l-0.4,0.3c-0.4,1-1.1,2.3-1.7,3.4c-0.4,0.5-0.8,0.9-1.1,1.4c-0.3,0.5-0.6,2.2-1.6,3.8
		c-0.7,1-1.2,1.8-1.7,2.7l-2.4,3.9C87.7,25.3,87.7,25.3,87.5,25.5L87.5,25.5z M87.9,32.2C87.7,32.2,87.9,32.1,87.9,32.2L87.7,32v0
		L87.9,32.2L87.9,32.2z M87.9,32.2c-0.1,0.1,0,0.2,0,0.2L87.9,32.2z M87.9,32.4L87.9,32.4L87.9,32.4z M93.4,10.6
		c0.1-0.1,0.1-0.2-0.1-0.2l-0.1,0.1C93,10.6,93.2,10.6,93.4,10.6z M95.8,7.7c-0.1,0.1-0.5,1-0.2,1l0.1-0.1C95.9,8.3,96,8,95.8,7.7z
		 M96.6,6.8C96.3,7,96.1,7.1,96,7.3c-0.1,0.1-0.1,0.2-0.1,0.4C96,7.4,96.5,6.9,96.6,6.8z M104.8,2.7C104.7,2.7,104.7,2.6,104.8,2.7
		c-0.2,0-0.3,0.2-0.5,0.5l-0.4,0.7c-0.1,0-0.2,0.2-0.3,0.4C103.7,4.2,104.7,2.9,104.8,2.7L104.8,2.7z M105.1,3
		c0-0.3,0.1-0.3-0.3-0.3c0.1,0.2-0.2,0.7-0.3,1L105.1,3z M105.6,1.7l-0.4,0.5c0.1-0.1,0.3-0.3,0.5-0.4L105.6,1.7z"/>
</g>
</svg>
